Coordinates
version=1
nRows=8
nColumns=40
inDegrees=yes

Units are S.I. units (second, meters, Newtons, ...)
Angles are in degrees.

endheader
time	pelvis_tilt	pelvis_list	pelvis_rotation	pelvis_tx	pelvis_ty	pelvis_tz	hip_flexion_r	hip_adduction_r	hip_rotation_r	knee_angle_r	knee_angle_r_beta	ankle_angle_r	subtalar_angle_r	mtp_angle_r	hip_flexion_l	hip_adduction_l	hip_rotation_l	knee_angle_l	knee_angle_l_beta	ankle_angle_l	subtalar_angle_l	mtp_angle_l	lumbar_extension	lumbar_bending	lumbar_rotation	arm_flex_r	arm_add_r	arm_rot_r	elbow_flex_r	pro_sup_r	wrist_flex_r	wrist_dev_r	arm_flex_l	arm_add_l	arm_rot_l	elbow_flex_l	pro_sup_l	wrist_flex_l	wrist_dev_l
     38.75778571	     -4.17537177	     -5.41309095	      3.74220999	      0.90018299	      0.91728041	      0.48975118	     -1.01475898	      3.70466957	    -14.90845013	     11.85775552	     11.85775552	     18.13536730	      2.64489995	     -4.72603717	     30.21075343	     -7.51408860	     -2.28285878	     20.92134457	     20.92134457	      0.65486141	    -12.53345208	      5.18290717	     -8.59300644	      7.05001765	      3.48806190	     34.63903794	    -15.08280383	      0.13621568	    109.29414181	     44.04746138	      0.00000000	      0.00000000	    -10.12217176	     -8.76821582	     -8.66094159	     29.51243359	     46.45988752	      0.00000000	      0.00000000
     38.77057143	     -4.16815164	     -5.46299711	      3.71893953	      0.90198594	      0.91643154	      0.48766124	     -1.54870877	      3.60893796	    -14.89502886	     11.96683782	     11.96683782	     18.39434708	      2.80870018	     -4.47539688	     30.15263133	     -7.41999677	     -1.89842006	     21.96715095	     21.96715095	      0.74517080	    -13.08711803	      4.87414956	     -8.45577455	      6.99945562	      3.54069612	     34.85872608	    -15.04373203	      0.59133615	    109.79622653	     44.02684935	      0.00000000	      0.00000000	    -10.13777144	     -8.78857623	     -8.66144734	     29.71723419	     46.45562488	      0.00000000	      0.00000000
     38.78335714	     -4.15729785	     -5.41010491	      3.68737957	      0.90365392	      0.91589047	      0.48545211	     -1.99590203	      3.37138718	    -14.84312125	     12.23385495	     12.23385495	     18.60258500	      2.84592033	     -4.28398696	     30.06610516	     -7.23104231	     -1.61680843	     22.95368814	     22.95368814	      1.00433997	    -13.58080590	      4.60747673	     -8.37525525	      6.80580956	      3.62132644	     34.91297532	    -15.02524310	      0.94002800	    109.99725985	     44.01617139	      0.00000000	      0.00000000	     -9.99952928	     -8.83129978	     -8.65476408	     29.90896293	     46.45380417	      0.00000000	      0.00000000
     38.79614286	     -4.18996634	     -5.29653683	      3.67571605	      0.90523038	      0.91565356	      0.48300766	     -2.38359786	      3.04984272	    -14.80597797	     12.49315096	     12.49315096	     18.61520312	      2.79334954	     -4.19051395	     29.90133237	     -6.95377967	     -1.34377068	     23.69770953	     23.69770953	      1.47252085	    -13.93166833	      4.32554274	     -8.28669869	      6.58463747	      3.66478403	     34.85012031	    -14.95185150	      1.12935699	    110.01045828	     44.01169396	      0.00000000	      0.00000000	     -9.72884977	     -8.82667346	     -8.63966546	     30.05599484	     46.45475119	      0.00000000	      0.00000000
     38.80892857	     -4.08383037	     -5.26290325	      3.68613874	      0.90662878	      0.91568841	      0.48052878	     -2.73162453	      2.77110729	    -14.76175746	     13.09512367	     13.09512367	     18.68621473	      2.68911975	     -4.12550379	     29.80847210	     -6.77900944	     -1.06006184	     24.77309334	     24.77309334	      1.95148300	    -14.47462325	      4.08435163	     -8.39734894	      6.42034736	      3.70952108	     34.66128353	    -14.94861611	      1.39236651	    109.91377416	     44.00877380	      0.00000000	      0.00000000	     -9.36543983	     -8.86705081	     -8.62260707	     30.25459378	     46.45645528	      0.00000000	      0.00000000
     38.82171429	     -4.12162391	     -5.31081280	      3.62261678	      0.90769721	      0.91573002	      0.47800239	     -2.63717324	      2.47748006	    -14.72002907	     14.17835250	     14.17835250	     18.74714416	      2.48866568	     -4.04751749	     29.83830728	     -6.67890916	     -0.79171380	     25.74337197	     25.74337197	      2.61321205	    -15.05731619	      4.03364741	     -8.42393387	      6.39504844	      3.80453534	     34.45590000	    -15.17962478	      1.72121269	    109.61590545	     44.01271016	      0.00000000	      0.00000000	     -8.97205280	     -8.89821490	     -8.58817425	     30.52957976	     46.45469777	      0.00000000	      0.00000000
     38.83450000	     -4.33780466	     -5.21488752	      3.54514351	      0.90856523	      0.91581618	      0.47523662	     -2.10476284	      1.93155779	    -14.63443902	     15.73460819	     15.73460819	     18.90312116	      2.11025780	     -3.90677639	     29.89909829	     -6.39303718	     -0.57171900	     26.45157340	     26.45157340	      3.45575359	    -15.43010734	      4.53699368	     -8.23201188	      6.23030749	      3.95908665	     34.17442497	    -15.58248394	      2.17162571	    108.91835529	     44.03165458	      0.00000000	      0.00000000	     -8.53471220	     -8.88247141	     -8.48715251	     30.94762087	     46.44063231	      0.00000000	      0.00000000
     38.84728571	     -4.40021829	     -5.12995209	      3.50041211	      0.90946665	      0.91644700	      0.47237816	     -1.77501597	      1.41987594	    -14.56502048	     17.20828331	     17.20828331	     19.08861297	      1.83452073	     -3.16539783	     29.81555558	     -6.10139682	     -0.33000688	     27.25855729	     27.25855729	      5.28341125	    -15.46158888	      7.44114228	     -8.22961962	      6.09200091	      3.65349706	     34.06476927	    -15.50745464	      2.92578382	    107.54191087	     44.11280811	      0.00000000	      0.00000000	     -8.44508764	     -8.97762509	     -7.97083470	     31.81513742	     46.34158625	      0.00000000	      0.00000000
